<?xml version="1.0" encoding="utf-8"?>
<!-- Generated by IcoMoon.io -->
<!DOCTYPE svg PUBLIC "-//W3C//DTD SVG 1.1//EN" "http://www.w3.org/Graphics/SVG/1.1/DTD/svg11.dtd">
<svg version="1.1" xmlns="http://www.w3.org/2000/svg" xmlns:xlink="http://www.w3.org/1999/xlink" width="128" height="128" viewBox="0 0 128 128">
<path fill="#ffffff" d="M64 0c-35.346 0-64 28.654-64 64s28.654 64 64 64 64-28.654 64-64-28.654-64-64-64zM102.007 102.007c-4.94 4.939-10.689 8.817-17.088 11.523-1.626 0.688-3.277 1.291-4.95 1.811v-9.592c0-5.042-1.729-8.75-5.188-11.125 2.167-0.208 4.156-0.5 5.969-0.875s3.729-0.917 5.75-1.625 3.833-1.552 5.438-2.531 3.146-2.25 4.625-3.813 2.719-3.333 3.719-5.313 1.792-4.354 2.375-7.125 0.875-5.823 0.875-9.156c0-6.458-2.104-11.958-6.313-16.5 1.917-5 1.708-10.438-0.625-16.313l-1.563-0.188c-1.083-0.125-3.031 0.333-5.844 1.375s-5.969 2.75-9.469 5.125c-4.958-1.375-10.104-2.063-15.438-2.063-5.375 0-10.5 0.688-15.375 2.063-2.208-1.5-4.302-2.739-6.281-3.719s-3.563-1.646-4.75-2-2.292-0.573-3.313-0.656-1.677-0.104-1.969-0.063-0.5 0.083-0.625 0.125c-2.333 5.917-2.542 11.354-0.625 16.313-4.208 4.542-6.313 10.042-6.313 16.5 0 3.333 0.292 6.386 0.875 9.156s1.375 5.146 2.375 7.125 2.239 3.75 3.719 5.313 3.021 2.833 4.625 3.813 3.417 1.823 5.438 2.531 3.938 1.25 5.75 1.625 3.802 0.667 5.969 0.875c-3.417 2.333-5.125 6.042-5.125 11.125v9.779c-1.887-0.562-3.748-1.225-5.575-1.999-6.399-2.707-12.148-6.584-17.088-11.523s-8.817-10.689-11.523-17.088c-2.8-6.62-4.22-13.658-4.22-20.919s1.42-14.299 4.22-20.919c2.707-6.399 6.584-12.148 11.523-17.088s10.689-8.817 17.088-11.523c6.62-2.8 13.658-4.22 20.919-4.22s14.299 1.42 20.919 4.22c6.4 2.707 12.149 6.584 17.088 11.523s8.817 10.689 11.523 17.088c2.8 6.62 4.219 13.658 4.219 20.919s-1.42 14.299-4.22 20.919c-2.707 6.399-6.584 12.149-11.523 17.088z"></path>
</svg>
